<?xml version="1.0" encoding="utf-8"?>
<!-- Generator: Adobe Illustrator 16.0.0, SVG Export Plug-In . SVG Version: 6.00 Build 0)  -->
<!DOCTYPE svg PUBLIC "-//W3C//DTD SVG 1.1//EN" "http://www.w3.org/Graphics/SVG/1.1/DTD/svg11.dtd">
<svg version="1.1" id="Layer_1" xmlns="http://www.w3.org/2000/svg" xmlns:xlink="http://www.w3.org/1999/xlink" x="0px" y="0px"
	 width="386.291px" height="201.081px" viewBox="0 0 386.291 201.081" enable-background="new 0 0 386.291 201.081"
	 xml:space="preserve">
<g>
	<path fill="#00A0AF" d="M28.372,7.972v53.462c0,8.344,1.508,14.166,4.526,17.466c3.017,3.302,8.212,4.952,15.584,4.952
		c7.371,0,12.554-1.641,15.552-4.922c2.997-3.279,4.496-9.112,4.496-17.496V7.972h18.772V61.92c0,6.318-0.415,11.361-1.245,15.127
		c-0.831,3.768-2.157,6.744-3.979,8.931c-3.565,4.213-8.05,7.311-13.457,9.296c-5.407,1.984-12.12,2.976-20.139,2.976
		c-8.02,0-14.755-0.992-20.201-2.976c-5.447-1.985-9.954-5.083-13.517-9.296c-1.784-2.146-3.079-5.042-3.889-8.687
		c-0.81-3.646-1.215-8.769-1.215-15.371V7.972H28.372z"/>
	<polygon fill="#00A0AF" points="105.527,7.972 133.109,7.972 155.891,76.5 178.673,7.972 206.133,7.972 206.133,97.278 
		187.726,97.278 189.244,27.716 166.341,97.278 146.415,97.278 122.781,26.987 124.666,97.278 105.527,97.278 	"/>
	<path fill="#00A0AF" d="M261.396,23.523c-6.797,0-11.924,1.701-15.383,5.104c-3.459,3.402-5.369,8.607-5.735,15.614l51.944,0.06
		v15.553h-52.065c0.039,7.776,1.69,13.365,4.946,16.768c3.256,3.402,8.688,5.104,16.293,5.104h30.826v15.552h-31.736
		c-7.004,0-12.508-0.596-16.516-1.792c-4.008-1.194-7.772-3.209-11.293-6.045c-4.574-3.645-8.006-8.394-10.293-14.247
		c-2.287-5.851-3.43-12.848-3.43-20.989c0-15.796,3.421-27.451,10.261-34.964c6.841-7.511,17.447-11.269,31.816-11.269h31.191
		v15.552H261.396z"/>
	<polygon fill="#00A0AF" points="328.187,23.645 299.329,23.645 299.329,8.093 376.608,8.093 376.608,23.645 347.628,23.645 
		347.628,97.278 328.187,97.278 	"/>
	<rect x="9.658" y="114.627" fill="#00A0AF" width="366.949" height="5.993"/>
	<path fill="#FFFFFF" d="M13.428,150.941c0,2.711,0.316,4.12,1.162,5.07c1.021,1.233,2.676,1.831,5.035,1.831
		c2.676,0,4.613-0.809,5.564-2.359c0.528-0.88,0.704-1.972,0.704-4.824v-13.662h3.767v13.662c0,4.472-0.422,6.021-2.148,7.606
		c-1.866,1.725-4.647,2.571-8.38,2.571c-3.873,0-6.444-1.092-8.028-3.416c-1.092-1.549-1.444-3.169-1.444-6.479v-13.944h3.768
		V150.941z"/>
	<polygon fill="#FFFFFF" points="51.918,160.484 48.292,160.484 48.292,136.998 52.763,136.998 64.771,155.8 64.771,136.998 
		68.397,136.998 68.397,160.484 64.066,160.484 51.918,141.751 	"/>
	<rect x="87.311" y="136.998" fill="#FFFFFF" width="3.768" height="23.486"/>
	<polygon fill="#FFFFFF" points="122.103,160.484 117.631,160.484 107.561,136.998 111.893,136.998 119.919,156.963 
		128.055,136.998 132.104,136.998 	"/>
	<path fill="#FFFFFF" d="M165.489,139.991h-6.832c-3.415,0-4.929,0.704-6.127,2.781c-0.704,1.198-0.95,2.219-1.056,4.402h14.015
		v2.993h-14.05c0.035,1.796,0.387,3.24,1.127,4.577c1.162,2.008,2.746,2.747,5.881,2.747h7.042v2.993h-7.712
		c-4.155,0-6.409-0.88-8.205-3.275c-1.583-2.113-2.253-4.507-2.253-7.993c0-4.789,1.374-8.239,4.12-10.387
		c1.655-1.268,3.908-1.831,7.429-1.831h6.621V139.991z"/>
	<path fill="#FFFFFF" d="M187.289,160.484h-3.768v-23.486h10.705c3.38,0,5.316,0.422,6.655,1.373c1.513,1.127,2.43,3.027,2.43,5.141
		c0,2.007-0.74,3.732-2.079,4.823c-0.774,0.67-1.443,0.986-2.816,1.338c3.134,1.374,4.049,2.888,4.331,7.254
		c0.175,2.782,0.175,2.782,0.634,3.557h-3.874c-0.14-0.317-0.175-0.388-0.281-0.986c-0.105-1.163-0.141-1.584-0.211-2.395
		c-0.458-4.93-2.43-6.549-7.994-6.549h-3.732V160.484z M193.979,147.561c2.183,0,3.346-0.211,4.049-0.775
		c0.88-0.704,1.304-1.69,1.304-3.028c0-1.514-0.564-2.746-1.585-3.31c-0.634-0.317-1.62-0.457-3.768-0.457h-6.69v7.57H193.979z"/>
	<path fill="#FFFFFF" d="M220.674,157.491h10.141c1.76,0,2.711-0.176,3.45-0.634c0.986-0.598,1.479-1.584,1.479-2.957
		c0-1.796-0.739-3.029-2.112-3.451c-0.67-0.176-1.55-0.247-3.521-0.247h-1.938c-2.923,0-4.719-0.352-5.951-1.197
		c-1.549-1.021-2.395-2.782-2.395-4.93c0-2.641,1.268-4.894,3.381-6.091c1.302-0.705,2.923-0.986,5.74-0.986h9.646v2.993h-9.646
		c-2.078,0-2.994,0.176-3.803,0.668c-0.811,0.564-1.34,1.62-1.34,2.888c0,2.359,1.444,3.275,5.143,3.275h1.408
		c4.118,0,5.774,0.317,7.077,1.373c1.443,1.197,2.288,3.239,2.288,5.564c0,2.746-1.232,4.859-3.415,5.915
		c-1.339,0.634-2.676,0.81-5.95,0.81h-9.684V157.491z"/>
	<rect x="257.405" y="136.998" fill="#FFFFFF" width="3.768" height="23.486"/>
	<path fill="#FFFFFF" d="M289.099,136.998c4.93,0,6.865,0.598,8.803,2.641c2.043,2.147,2.957,4.929,2.957,8.873
		c0,5.317-1.514,8.979-4.473,10.704c-1.725,1.022-3.098,1.268-6.936,1.268h-9.367v-23.486H289.099z M283.853,157.491h5.984
		c2.854,0,4.578-0.739,5.668-2.465c0.918-1.373,1.375-3.451,1.375-5.986c0-3.028-0.67-5.599-1.797-7.077
		c-1.092-1.409-2.639-1.972-5.492-1.972h-5.738V157.491z"/>
	<path fill="#FFFFFF" d="M324.772,136.998h4.928l9.332,23.486h-3.979l-2.395-6.127h-11.127l-2.5,6.127h-3.979L324.772,136.998z
		 M322.659,151.364h8.803l-4.297-11.549L322.659,151.364z"/>
	<path fill="#FFFFFF" d="M364.603,136.998c4.928,0,6.863,0.598,8.803,2.641c2.041,2.147,2.957,4.929,2.957,8.873
		c0,5.317-1.514,8.979-4.471,10.704c-1.727,1.022-3.1,1.268-6.939,1.268h-9.365v-23.486H364.603z M359.354,157.491h5.986
		c2.852,0,4.578-0.739,5.668-2.465c0.916-1.373,1.373-3.451,1.373-5.986c0-3.028-0.668-5.599-1.795-7.077
		c-1.092-1.409-2.641-1.972-5.494-1.972h-5.738V157.491z"/>
	<polygon fill="#FFFFFF" points="22.899,189.243 30.012,170.088 35.541,170.088 35.541,193.575 31.914,193.575 31.914,173.609 
		24.589,193.575 20.857,193.575 13.287,173.609 13.287,193.575 9.66,193.575 9.66,170.088 15.188,170.088 	"/>
	<path fill="#FFFFFF" d="M64.454,173.082h-6.831c-3.416,0-4.93,0.704-6.127,2.781c-0.704,1.198-0.951,2.219-1.056,4.402h14.014
		v2.993H50.405c0.035,1.796,0.387,3.24,1.127,4.578c1.161,2.007,2.746,2.746,5.88,2.746h7.042v2.993h-7.711
		c-4.155,0-6.409-0.88-8.205-3.275c-1.584-2.112-2.253-4.507-2.253-7.992c0-4.789,1.373-8.24,4.12-10.388
		c1.654-1.268,3.908-1.831,7.429-1.831h6.62V173.082z"/>
	<polygon fill="#FFFFFF" points="73.225,173.082 73.225,170.088 93.225,170.088 93.225,173.082 85.126,173.082 85.126,193.575 
		81.358,193.575 81.358,173.082 	"/>
	<path fill="#FFFFFF" d="M106.715,193.575h-3.768v-23.486h10.704c3.38,0,5.317,0.422,6.655,1.373c1.515,1.127,2.43,3.028,2.43,5.141
		c0,2.007-0.739,3.732-2.078,4.824c-0.774,0.669-1.443,0.986-2.817,1.338c3.135,1.373,4.05,2.887,4.332,7.253
		c0.175,2.782,0.175,2.782,0.634,3.557h-3.874c-0.14-0.318-0.176-0.387-0.282-0.986c-0.105-1.162-0.141-1.585-0.211-2.394
		c-0.457-4.93-2.429-6.55-7.993-6.55h-3.732V193.575z M113.405,180.652c2.184,0,3.345-0.211,4.049-0.775
		c0.88-0.704,1.303-1.69,1.303-3.028c0-1.514-0.563-2.746-1.584-3.31c-0.635-0.316-1.621-0.457-3.768-0.457h-6.69v7.57H113.405z"/>
	<path fill="#FFFFFF" d="M154.994,181.779c0,4.578-1.092,7.571-3.415,9.578c-2.008,1.69-4.79,2.571-8.135,2.571
		c-4.014,0-7.148-1.268-8.908-3.592c-1.409-1.832-2.289-5.176-2.289-8.451c0-3.592,1.057-6.937,2.747-8.803
		c2.042-2.289,4.929-3.345,9.014-3.345C151.366,169.737,154.994,173.716,154.994,181.779 M137.141,176.286
		c-0.564,1.268-0.916,3.345-0.916,5.528c0,6.374,2.254,9.12,7.465,9.12c3.31,0,5.529-1.232,6.55-3.627
		c0.458-1.091,0.775-3.204,0.775-5.316c0-2.888-0.493-5.353-1.374-6.621c-1.197-1.795-3.133-2.641-5.986-2.641
		C140.486,172.729,138.198,173.997,137.141,176.286"/>
	<path fill="#FFFFFF" d="M169.54,193.575h-3.767v-23.486h10.387c3.31,0,4.895,0.493,6.374,1.901
		c1.338,1.303,2.006,3.169,2.006,5.493c0,2.641-0.95,4.894-2.606,6.198c-1.267,0.985-3.133,1.373-6.479,1.373h-5.915V193.575z
		 M175.702,182.061c1.902,0,2.993-0.317,3.732-1.091c0.67-0.705,1.092-2.113,1.092-3.557s-0.457-2.711-1.267-3.451
		c-0.669-0.633-1.725-0.88-3.698-0.88h-6.021v8.979H175.702z"/>
	<path fill="#FFFFFF" d="M216.339,181.779c0,4.578-1.091,7.571-3.415,9.578c-2.007,1.69-4.789,2.571-8.134,2.571
		c-4.014,0-7.148-1.268-8.909-3.592c-1.408-1.832-2.289-5.176-2.289-8.451c0-3.592,1.057-6.937,2.747-8.803
		c2.042-2.289,4.93-3.345,9.014-3.345C212.713,169.737,216.339,173.716,216.339,181.779 M198.487,176.286
		c-0.563,1.268-0.916,3.345-0.916,5.528c0,6.374,2.254,9.12,7.466,9.12c3.309,0,5.528-1.232,6.548-3.627
		c0.459-1.091,0.774-3.204,0.774-5.316c0-2.888-0.492-5.353-1.373-6.621c-1.196-1.795-3.133-2.641-5.984-2.641
		C201.833,172.729,199.543,173.997,198.487,176.286"/>
	<path fill="#FFFFFF" d="M230.604,170.088v13.662c0,2.923,0.316,4.331,1.092,5.247c0.986,1.091,2.605,1.584,5.07,1.584h5.036v2.993
		h-5.776c-3.626,0-5.669-0.669-7.289-2.394c-1.408-1.514-1.9-3.381-1.9-6.972v-14.12H230.604z"/>
	<rect x="251.558" y="170.088" fill="#FFFFFF" width="3.768" height="23.486"/>
	<polygon fill="#FFFFFF" points="264.976,173.082 264.976,170.088 284.976,170.088 284.976,173.082 276.876,173.082 
		276.876,193.575 273.108,193.575 273.108,173.082 	"/>
	<path fill="#FFFFFF" d="M298.993,170.088h4.93l9.332,23.487h-3.979l-2.395-6.128h-11.127l-2.5,6.128h-3.98L298.993,170.088z
		 M296.882,184.455h8.803l-4.297-11.55L296.882,184.455z"/>
	<polygon fill="#FFFFFF" points="326.603,193.575 322.976,193.575 322.976,170.089 327.446,170.089 339.456,188.892 
		339.456,170.089 343.083,170.089 343.083,193.575 338.751,193.575 326.603,174.843 	"/>
	<path fill="#FFFFFF" d="M362.347,170.088h4.93l9.332,23.487h-3.98l-2.395-6.128h-11.125l-2.5,6.128h-3.98L362.347,170.088z
		 M360.233,184.455h8.803l-4.295-11.55L360.233,184.455z"/>
</g>
</svg>
